<svg width="63" height="64" viewBox="0 0 63 64" fill="none" xmlns="http://www.w3.org/2000/svg">
<path d="M3.2822 28.7945L0.340635 12.1822C0.206836 11.4265 0.93883 10.808 1.66154 11.066L16.4057 16.3297C17.1429 16.5929 17.3056 17.5627 16.6946 18.052L3.2822 28.7945L0.340635 12.1822C0.206836 11.4265 0.93883 10.808 1.66154 11.066L16.4057 16.3297C17.1429 16.5929 17.3056 17.5627 16.6946 18.052L3.2822 28.7945Z" fill="#100E86"/>
<path d="M62.2593 29.7002C62.2574 29.7582 62.1709 29.7602 62.166 29.7025C62.1346 29.1738 62.0343 28.4045 61.88 27.4371C61.8336 27.1965 61.7849 26.9414 61.7333 26.6746C61.7089 26.5425 61.6817 26.4059 61.6573 26.2666C61.6231 26.1296 61.5889 25.988 61.5523 25.8442C61.4815 25.5561 61.4102 25.259 61.3348 24.9496C61.2415 24.6453 61.1486 24.3291 61.0506 24.0012C60.6423 22.7032 60.0918 21.2664 59.336 19.7793C58.5779 18.295 57.6167 16.7591 56.4305 15.2698C55.2443 13.7832 53.8354 12.3414 52.2333 11.0366C51.4381 10.3781 50.575 9.77661 49.6921 9.19364C48.7895 8.63419 47.865 8.09147 46.8911 7.6288C44.9515 6.68492 42.8824 5.94638 40.7594 5.48868C38.6388 5.02557 36.4816 4.79401 34.3656 4.83245C34.1017 4.84195 33.8372 4.85054 33.5756 4.85958L33.1818 4.8718L33.1574 4.87225C33.3116 4.87044 33.1869 4.87315 33.2136 4.87315L33.1597 4.87813L33.0524 4.88717L32.8395 4.90481C32.5558 4.92878 32.2717 4.95275 31.9881 4.97672L31.5651 5.01245L31.3523 5.03009C31.2862 5.03732 31.2299 5.04908 31.169 5.05858C30.687 5.13501 30.2073 5.20964 29.7328 5.28517C29.2415 5.39235 28.7548 5.49818 28.2705 5.60446C26.3477 6.07618 24.5646 6.7392 22.9626 7.51347C22.7647 7.61252 22.5664 7.71157 22.3709 7.80835C22.1749 7.9074 21.977 7.99694 21.7937 8.11046C21.4219 8.32529 21.0571 8.5374 20.6952 8.74499C20.3454 8.96479 20.0106 9.19816 19.6754 9.41525C19.3378 9.62555 19.0298 9.86842 18.7264 10.0995C18.5722 10.2153 18.4231 10.3288 18.274 10.4396C18.198 10.4962 18.1244 10.5504 18.0513 10.607L17.8431 10.7865C17.5669 11.0226 17.2978 11.2537 17.0362 11.478C16.7694 11.6974 16.542 11.9475 16.3048 12.1691C16.1876 12.2826 16.0722 12.3934 15.9574 12.502C15.8425 12.6105 15.7323 12.7213 15.632 12.8371C14.7955 13.7267 14.1255 14.5457 13.6117 15.2418C13.3622 15.5954 13.14 15.9093 12.944 16.1834C12.7682 16.4665 12.6186 16.7071 12.4967 16.9029C12.377 17.0945 12.2855 17.242 12.2232 17.3428C12.1574 17.449 12.0915 17.555 12.0246 17.6605C10.8576 19.5365 8.33093 20.1452 6.38658 19.0173C4.43941 17.8893 3.81114 15.4516 4.98 13.5756C5.04474 13.4698 5.11854 13.364 5.19375 13.2647C5.21427 13.2376 5.23507 13.211 5.256 13.1842C5.32591 13.0947 5.5121 12.8567 5.80425 12.4852C5.99508 12.2469 6.22529 11.9497 6.50379 11.6074C6.80011 11.2772 7.13722 10.8973 7.51652 10.4726C8.28967 9.63957 9.27755 8.66946 10.4858 7.6478C10.6325 7.51573 10.7891 7.3882 10.9532 7.26563C11.1145 7.14036 11.2786 7.01327 11.4446 6.88573C11.7798 6.63337 12.1099 6.35477 12.4794 6.10693C12.8465 5.85683 13.223 5.59949 13.607 5.33808C13.7022 5.27341 13.7978 5.20783 13.8958 5.14135C13.9985 5.08074 14.0988 5.01969 14.2015 4.95818C14.4068 4.83652 14.6122 4.71305 14.8199 4.58823C15.2386 4.34084 15.6592 4.08169 16.1163 3.85872C16.5664 3.62807 17.0188 3.38475 17.491 3.15771C17.9706 2.9465 18.455 2.73213 18.9487 2.51369C19.1934 2.40017 19.4503 2.30972 19.7096 2.21384C19.9666 2.11886 20.223 2.02298 20.4851 1.9262C22.5762 1.18267 24.8511 0.608296 27.2334 0.288545C27.8326 0.224776 28.4341 0.160102 29.0385 0.0945233C29.6719 0.0660306 30.3077 0.0366335 30.9486 0.00723624C31.0269 0.00542718 31.1127 0 31.1858 0L31.3964 0.00452265L31.8221 0.0135679C32.1057 0.0198996 32.3917 0.0253268 32.6754 0.0321108L33.1869 0.0425129L33.6539 0.0755282C33.9619 0.0976891 34.2728 0.120755 34.5832 0.143368C37.0658 0.364073 39.546 0.900459 41.9114 1.69147C44.2838 2.4757 46.5245 3.56339 48.5645 4.84556C49.5918 5.47693 50.5478 6.18698 51.4677 6.90699C52.3679 7.65277 53.2338 8.40986 54.0164 9.21942C55.5964 10.8218 56.9247 12.5255 58.0031 14.2386C59.0796 15.9518 59.9038 17.67 60.5129 19.2959C61.1242 20.9263 61.5204 22.4626 61.7872 23.8312C61.8482 24.1735 61.9068 24.506 61.9658 24.8248C62.0048 25.1482 62.0437 25.4593 62.0831 25.7569C62.1027 25.9057 62.1196 26.0518 62.1393 26.1956C62.1492 26.3372 62.1614 26.4787 62.1712 26.6158C62.1909 26.8894 62.2101 27.1513 62.2298 27.3991C62.2739 28.395 62.2861 29.1715 62.2593 29.7002Z" fill="#100E86"/>
<path d="M58.9905 35.2023L61.9333 51.8123C62.0672 52.568 61.3352 53.1866 60.6125 52.9286L45.8677 47.6653C45.1305 47.4021 44.9678 46.4323 45.5788 45.9429L58.9905 35.2023L61.9333 51.8123C62.0672 52.568 61.3352 53.1866 60.6125 52.9286L45.8677 47.6653C45.1305 47.4021 44.9678 46.4323 45.5788 45.9429L58.9905 35.2023Z" fill="#100E86"/>
<path d="M0.0142942 34.3034C0.0161151 34.2447 0.101831 34.2422 0.106659 34.3006C0.139479 34.8293 0.239814 35.6009 0.394537 36.566C0.440485 36.8094 0.488308 37.0617 0.539883 37.3286C0.564263 37.4629 0.591457 37.5977 0.618182 37.7365C0.65147 37.8758 0.685697 38.0151 0.720392 38.1589C0.79119 38.4447 0.8648 38.7441 0.940286 39.0535C1.03171 39.3601 1.12548 39.6763 1.22301 40.0019C1.63185 41.2999 2.18135 42.7345 2.93855 44.2238C3.69529 45.7081 4.65691 47.244 5.84312 48.7333C7.02933 50.2222 8.43824 51.6617 10.0403 52.9665C10.835 53.625 11.6987 54.227 12.5815 54.8122C13.4841 55.3689 14.4087 55.9117 15.3848 56.3743C17.3217 57.3182 19.3889 58.0567 21.5142 58.5144C23.6348 58.9794 25.792 59.2105 27.908 59.1707C28.172 59.1612 28.4336 59.1517 28.698 59.1444L29.089 59.1304H29.1162C28.962 59.1327 29.089 59.1304 29.06 59.1304L29.2213 59.1164L29.4341 59.0974L30.2851 59.0268L30.7085 58.9911L30.919 58.9726C30.9874 58.9676 31.0437 58.9536 31.1046 58.9441C31.5866 58.8686 32.0635 58.793 32.5403 58.7175C33.0321 58.6112 33.5188 58.5049 34.0031 58.3991C35.9254 57.9269 37.7085 57.2639 39.3106 56.4896C39.5089 56.3906 39.7072 56.2916 39.9027 56.1948C40.0983 56.098 40.2966 56.0062 40.4799 55.8927C40.8517 55.6783 41.216 55.4657 41.578 55.2581C41.9305 55.0388 42.263 54.805 42.5982 54.5879C42.9358 54.378 43.2438 54.1347 43.5472 53.9036C43.6986 53.7878 43.8505 53.6748 43.9996 53.5639C44.0756 53.507 44.1487 53.4504 44.2223 53.3962L44.43 53.2171C44.7066 52.981 44.9758 52.7494 45.2397 52.5255C45.5037 52.3035 45.7316 52.0556 45.9688 51.834C46.086 51.721 46.2032 51.6097 46.3158 51.4989C46.4311 51.3926 46.5408 51.2818 46.6412 51.166C47.4776 50.2764 48.1481 49.4578 48.6615 48.7618C48.9109 48.4077 49.1359 48.0938 49.3296 47.8202C49.5054 47.5371 49.6545 47.2938 49.7769 47.1002C49.9578 46.8078 50.0758 46.618 50.124 46.5405C50.1405 46.5141 50.1569 46.4877 50.1733 46.4612L50.2467 46.3426C51.4183 44.4666 53.9422 43.8602 55.887 44.9858C57.8337 46.1138 58.4624 48.5492 57.2959 50.4275C57.2575 50.4866 57.2178 50.5456 57.1773 50.6036C57.0941 50.7226 57.0039 50.8362 56.9142 50.9502C56.8164 51.0746 56.6665 51.2653 56.4689 51.5179C56.2785 51.7562 56.0506 52.0534 55.7693 52.3957C55.4758 52.7259 55.1359 53.1058 54.7571 53.5305C53.9839 54.3663 52.996 55.3337 51.7873 56.3553C51.6406 56.4896 51.4844 56.6149 51.3203 56.7375C51.1591 56.8628 50.995 56.9903 50.8285 57.1174C50.4914 57.3702 50.1632 57.6483 49.7942 57.8962C49.4294 58.1463 49.053 58.4036 48.6666 58.6655C48.571 58.7315 48.4734 58.7953 48.3778 58.8613C48.2775 58.9228 48.1748 58.9843 48.0721 59.0454C47.8691 59.1657 47.6614 59.291 47.4532 59.4135C47.035 59.6636 46.6144 59.921 46.1568 60.1453C45.7067 60.3741 45.2543 60.6193 44.7821 60.8459C44.3053 61.0562 43.8186 61.271 43.3245 61.4903C43.0802 61.6034 42.8209 61.6929 42.564 61.7897C42.307 61.8843 42.0501 61.9788 41.7885 62.0778C39.6997 62.8213 37.4225 63.3944 35.0402 63.7155C34.4434 63.7792 33.839 63.843 33.2351 63.909C32.6017 63.9375 31.9655 63.9656 31.325 63.9963C31.2467 63.9986 31.1609 64.0036 31.0878 64.0036L30.8773 63.9986L30.4515 63.9891C30.1679 63.9846 29.8842 63.9773 29.5982 63.9706L29.0843 63.9611L28.6197 63.928C28.3112 63.9068 28.0008 63.8833 27.69 63.8593C25.2074 63.6399 22.7271 63.1018 20.3622 62.3116C17.9921 61.5279 15.7491 60.4402 13.7091 59.1589C12.6819 58.5262 11.7254 57.8161 10.806 57.0961C9.90576 56.3508 9.03978 55.5933 8.25726 54.7837C6.67956 53.1836 5.3466 51.4777 4.27292 49.7645C3.19267 48.0513 2.3703 46.3336 1.75891 44.7077C1.14846 43.0768 0.753681 41.5405 0.487371 40.1719C0.42595 39.83 0.366874 39.4972 0.309205 39.1783C0.268414 38.8554 0.228093 38.5438 0.191053 38.2462C0.17183 38.0979 0.152607 37.9513 0.13479 37.8098C0.123069 37.6659 0.113692 37.5244 0.10197 37.3874C0.0822785 37.1137 0.0630552 36.8519 0.0438321 36.604C-0.00117809 35.6104 -0.0124306 34.8316 0.0142942 34.3034Z" fill="#100E86"/>
<path d="M30.5058 14.2601C30.1973 14.2601 29.8888 14.2678 29.5803 14.2823C29.2722 14.2968 28.9647 14.3189 28.6571 14.3479C28.35 14.3773 28.0438 14.4134 27.7386 14.4573C27.4334 14.5007 27.1291 14.5518 26.8267 14.6097C26.5238 14.6681 26.2228 14.7332 25.9232 14.8056C25.6241 14.8779 25.3268 14.9571 25.0314 15.0435C24.736 15.1303 24.443 15.2235 24.1523 15.3239C23.8616 15.4243 23.5737 15.531 23.2887 15.645C23.0036 15.7589 22.7214 15.8797 22.4424 16.0068C22.1634 16.1343 21.8877 16.2682 21.6158 16.4084C21.3434 16.5486 21.0747 16.6956 20.8103 16.8484C20.5454 17.0018 20.2847 17.161 20.0282 17.326C19.7713 17.4916 19.5191 17.663 19.2715 17.8403C19.0235 18.0175 18.7801 18.2007 18.5415 18.3898C18.3028 18.5788 18.0694 18.7728 17.8406 18.9727C17.6122 19.1731 17.3886 19.378 17.1701 19.5887C16.9521 19.799 16.7392 20.0147 16.532 20.2355C16.3247 20.4557 16.1231 20.6814 15.9276 20.9116C15.7316 21.1413 15.5417 21.3761 15.358 21.6153C15.1742 21.8546 14.9965 22.0979 14.8249 22.3453C14.6533 22.5931 14.4882 22.8446 14.3298 23.0996C14.1708 23.3552 14.0189 23.6139 13.8736 23.8766C13.7277 24.1394 13.589 24.4049 13.4572 24.674C13.3255 24.9435 13.2003 25.2153 13.0821 25.4903C12.964 25.7657 12.8529 26.0434 12.7488 26.3234C12.6452 26.6038 12.5481 26.8865 12.4585 27.1714C12.369 27.4563 12.2865 27.743 12.2119 28.032C12.1369 28.3206 12.0689 28.6114 12.0089 28.9031C11.9489 29.1953 11.8959 29.4883 11.8504 29.7828C11.8054 30.0776 11.7674 30.373 11.7374 30.6692C11.707 30.9654 11.6845 31.2621 11.6695 31.5597C11.654 31.8568 11.6465 32.1544 11.6465 32.452C11.6465 32.7501 11.654 33.0477 11.6695 33.3448C11.6845 33.6424 11.707 33.9391 11.7374 34.2353C11.7674 34.5315 11.8054 34.8269 11.8504 35.1217C11.8959 35.4162 11.9489 35.7092 12.0089 36.0014C12.0689 36.2931 12.1369 36.5839 12.2119 36.8725C12.2865 37.1615 12.369 37.4482 12.4585 37.7331C12.5481 38.018 12.6452 38.3007 12.7488 38.5811C12.8529 38.8611 12.964 39.1388 13.0821 39.4142C13.2003 39.6892 13.3255 39.961 13.4572 40.2301C13.589 40.4996 13.7277 40.7651 13.8736 41.0279C14.0189 41.2902 14.1708 41.5493 14.3298 41.8049C14.4882 42.0599 14.6533 42.3114 14.8249 42.5592C14.9965 42.8066 15.1742 43.0499 15.358 43.2892C15.5417 43.5284 15.7316 43.7627 15.9276 43.9929C16.1231 44.2231 16.3247 44.4483 16.532 44.669C16.7392 44.8898 16.9521 45.1055 17.1701 45.3158C17.3886 45.5265 17.6122 45.7314 17.8406 45.9313C18.0694 46.1317 18.3028 46.3257 18.5415 46.5147C18.7801 46.7038 19.0235 46.887 19.2715 47.0642C19.5191 47.2415 19.7713 47.4129 20.0282 47.578C20.2847 47.7435 20.5454 47.9027 20.8103 48.0561C21.0747 48.2089 21.3434 48.3559 21.6158 48.4961C21.8877 48.6363 22.1634 48.7702 22.4424 48.8977C22.7214 49.0248 23.0036 49.1456 23.2887 49.2595C23.5737 49.3731 23.8616 49.4802 24.1523 49.5806C24.443 49.681 24.736 49.7742 25.0314 49.8606C25.3268 49.9474 25.6241 50.0266 25.9232 50.0989C26.2228 50.1713 26.5238 50.2364 26.8267 50.2948C27.1291 50.3527 27.4334 50.4033 27.7386 50.4472C28.0438 50.491 28.35 50.5272 28.6571 50.5566C28.9647 50.5856 29.2722 50.6077 29.5803 50.6222C29.8888 50.6367 30.1973 50.6439 30.5058 50.6439C30.8143 50.6439 31.1228 50.6367 31.4313 50.6222C31.7394 50.6077 32.0474 50.5856 32.3545 50.5566C32.6616 50.5272 32.9678 50.491 33.273 50.4472C33.5782 50.4033 33.8825 50.3527 34.1849 50.2948C34.4878 50.2364 34.7888 50.1713 35.0884 50.0989C35.3875 50.0266 35.6853 49.9474 35.9802 49.8606C36.2755 49.7742 36.5686 49.681 36.8593 49.5806C37.15 49.4802 37.4378 49.3731 37.7229 49.2595C38.008 49.1456 38.2902 49.0248 38.5692 48.8977C38.8482 48.7702 39.1239 48.6363 39.3963 48.4961C39.6682 48.3559 39.9369 48.2089 40.2013 48.0561C40.4662 47.9027 40.7269 47.7435 40.9833 47.578C41.2403 47.4129 41.4925 47.2415 41.7401 47.0642C41.9881 46.887 42.2314 46.7038 42.4701 46.5147C42.7087 46.3257 42.9422 46.1317 43.171 45.9313C43.3998 45.7314 43.623 45.5265 43.8415 45.3158C44.0595 45.1055 44.2724 44.8898 44.4796 44.669C44.6868 44.4483 44.8885 44.2231 45.0844 43.9929C45.2799 43.7627 45.4698 43.5284 45.6536 43.2892C45.8374 43.0499 46.0151 42.8066 46.1867 42.5592C46.3583 42.3114 46.5234 42.0599 46.6818 41.8049C46.8408 41.5493 46.9927 41.2902 47.138 41.0279C47.2838 40.7651 47.4226 40.4996 47.5544 40.2301C47.6866 39.961 47.8113 39.6892 47.9295 39.4142C48.0476 39.1388 48.1587 38.8611 48.2628 38.5811C48.3669 38.3007 48.4635 38.018 48.553 37.7331C48.6426 37.4482 48.7251 37.1615 48.8001 36.8725C48.8751 36.5839 48.9427 36.2931 49.0027 36.0014C49.0632 35.7092 49.1157 35.4162 49.1611 35.1217C49.2062 34.8269 49.2441 34.5315 49.2741 34.2353C49.3046 33.9391 49.3271 33.6424 49.3426 33.3448C49.3576 33.0477 49.3651 32.7501 49.3651 32.452C49.3651 32.1544 49.3576 31.8568 49.3426 31.5597C49.3271 31.2621 49.3046 30.9654 49.2741 30.6692C49.2441 30.373 49.2062 30.0776 49.1611 29.7828C49.1157 29.4883 49.0632 29.1953 49.0027 28.9031C48.9427 28.6114 48.8751 28.3206 48.8001 28.032C48.7251 27.743 48.6426 27.4563 48.553 27.1714C48.4635 26.8865 48.3669 26.6038 48.2628 26.3234C48.1587 26.0434 48.0476 25.7657 47.9295 25.4903C47.8113 25.2153 47.6866 24.9435 47.5544 24.674C47.4226 24.4049 47.2838 24.1394 47.138 23.8766C46.9927 23.6139 46.8408 23.3552 46.6818 23.0996C46.5234 22.8446 46.3583 22.5931 46.1867 22.3453C46.0151 22.0979 45.8374 21.8546 45.6536 21.6153C45.4698 21.3761 45.2799 21.1413 45.0844 20.9116C44.8885 20.6814 44.6868 20.4557 44.4796 20.2355C44.2724 20.0147 44.0595 19.799 43.8415 19.5887C43.623 19.378 43.3998 19.1731 43.171 18.9727C42.9422 18.7728 42.7087 18.5788 42.4701 18.3898C42.2314 18.2007 41.9881 18.0175 41.7401 17.8403C41.4925 17.663 41.2403 17.4916 40.9833 17.326C40.7269 17.161 40.4662 17.0018 40.2013 16.8484C39.9369 16.6956 39.6682 16.5486 39.3963 16.4084C39.1239 16.2682 38.8482 16.1343 38.5692 16.0068C38.2902 15.8797 38.008 15.7589 37.7229 15.645C37.4378 15.531 37.15 15.4243 36.8593 15.3239C36.5686 15.2235 36.2755 15.1303 35.9802 15.0435C35.6853 14.9571 35.3875 14.8779 35.0884 14.8056C34.7888 14.7332 34.4878 14.6681 34.1849 14.6097C33.8825 14.5518 33.5782 14.5007 33.273 14.4573C32.9678 14.4134 32.6616 14.3773 32.3545 14.3479C32.0474 14.3189 31.7394 14.2968 31.4313 14.2823C31.1228 14.2678 30.8143 14.2601 30.5058 14.2601Z" fill="#100E86"/>
<path d="M37.7456 27.28C37.7615 28.1194 37.6373 28.5391 37.3724 28.5391C37.1398 28.5391 36.9195 28.3596 36.7122 28C36.4384 27.5274 36.1402 27.1832 35.8176 26.9671C35.2447 26.5994 34.4111 26.4153 33.3158 26.4153C32.6843 26.4153 32.1779 26.5311 31.7967 26.7626C31.4816 26.9558 31.2866 27.868 31.2116 29.4998C31.2041 29.6843 31.2003 30.6612 31.2003 32.4304C31.2003 33.1504 31.1914 33.9826 31.1741 34.9269L31.1366 36.367C31.1366 37.5275 31.2697 38.304 31.536 38.697C31.627 38.849 31.9547 39.0009 32.5188 39.1529C32.975 39.2895 33.2033 39.5536 33.2033 39.9453C33.2033 40.3288 32.9623 40.5206 32.4812 40.5206C32.2412 40.5206 31.9843 40.5007 31.7104 40.4609C30.9715 40.3731 30.498 40.3288 30.2907 40.3288C30.008 40.3288 29.6887 40.3451 29.3324 40.3776L27.9146 40.497C27.4082 40.497 27.155 40.3089 27.155 39.9326C27.155 39.6771 27.4199 39.4329 27.9502 39.1999C28.5475 38.9358 28.9339 38.252 29.1092 37.1485C29.2578 36.2272 29.3324 34.9903 29.3324 33.4381C29.3324 32.8619 29.3197 31.9976 29.2949 30.8457C29.2696 29.6929 29.2574 28.8281 29.2574 28.2515C29.2574 27.4591 29.1908 26.9553 29.0586 26.7391C28.8921 26.475 28.5021 26.3429 27.8883 26.3429C26.7767 26.3429 25.9097 26.4994 25.2871 26.8115C24.9645 26.972 24.6204 27.2683 24.2556 27.6997C23.9729 28.0195 23.6949 28.1791 23.421 28.1791C23.0145 28.1791 22.8115 28.0394 22.8115 27.7594C22.8115 27.4953 22.865 27.1914 22.9728 26.8477C23.0891 26.456 23.1552 26.1675 23.1716 25.9829C23.1875 25.6709 23.2208 25.1987 23.271 24.5664C23.3207 24.1902 23.5242 24.002 23.8805 24.002C23.9555 24.002 24.2336 24.2024 24.7151 24.6026C25.1961 25.0033 25.7152 25.2032 26.2717 25.2032L34.9831 25.1544C35.398 25.1544 35.925 24.9025 36.5641 24.3982C36.8791 24.1499 37.1567 24.0255 37.3968 24.0255C37.6218 24.0255 37.7343 24.798 37.7343 26.3429V26.835C37.7343 26.8992 37.7381 26.9752 37.7456 27.0629C37.7456 27.1751 37.7456 27.2475 37.7456 27.28Z" fill="white"/>
</svg>
